# xmcd
#
# Track frame offsets: 
#        150
#        15294
#        34092
#        47007
#        75462
#        89971
#        111437
#        132247
#        158937
#        176536
#
# Disc length: 2651 seconds
#
# Revision: 0
# Processed by: cddbd v1.5.2PL0 Copyright (c) Steve Scherf et al.
# Submitted via: ExactAudioCopy v1.3
#
DISCID=7a0a590a
DTITLE=Griff Hamlin and the Single Barrel Blues Band - I'll Drink To T
DTITLE=hat
DYEAR=2019
DGENRE=Electric Blues
TTITLE0=Griff Hamlin and the Single Bar - Almost Level With The Ground
TTITLE1=Griff Hamlin and the Single Bar - Same to You
TTITLE2=Griff Hamlin and the Single Bar - Down And Out
TTITLE3=Griff Hamlin and the Single Bar - Someone
TTITLE4=Griff Hamlin and the Single Bar - Nothing Better
TTITLE5=Griff Hamlin and the Single Bar - Louisiana Holiday
TTITLE6=Griff Hamlin and the Single Bar - Don't Lie
TTITLE7=Griff Hamlin and the Single Bar - Where Would I Begin
TTITLE8=Griff Hamlin and the Single Bar - Got To End
TTITLE9=Griff Hamlin and the Single Bar - Bourbon And A Pistol
EXTD=
EXTT0=
EXTT1=
EXTT2=
EXTT3=
EXTT4=
EXTT5=
EXTT6=
EXTT7=
EXTT8=
EXTT9=
PLAYORDER=
